<svg viewBox="0 0 225 25" fill="none" xmlns="http://www.w3.org/2000/svg">
<g clip-path="url(#clip0_6278_18774)">
<path d="M0 0.390625H6.2687V14.8826C6.2687 16.9853 7.39922 18.1171 9.49966 18.1171H16.7696V23.6805H0V0.390625Z" fill="#EDEDED"/>
<path d="M19.0938 0.390625H36.1871V5.95401H26.7201C25.9773 5.95401 25.5569 6.37482 25.5569 7.11844V8.25021C25.5569 8.99384 25.9773 9.41464 26.7201 9.41464H35.2185V14.6225H26.7201C25.9773 14.6225 25.5569 15.0434 25.5569 15.787V16.9514C25.5569 17.695 25.9773 18.1158 26.7201 18.1158H36.1871V23.6792H19.0938V0.390625Z" fill="#EDEDED"/>
<path d="M37.5859 12.0337C37.5859 5.36995 42.95 0 49.6064 0C56.2628 0 61.6268 5.36995 61.6268 12.0337C61.6268 18.6975 56.2628 24.0674 49.6064 24.0674C42.95 24.0674 37.5859 18.6975 37.5859 12.0337ZM45.4055 17.5004H53.8073C54.5501 17.5004 54.8412 17.1122 54.8412 16.2392V7.82819C54.8412 6.95518 54.5501 6.56703 53.8073 6.56703H45.4055C44.6627 6.56703 44.3716 6.95518 44.3716 7.82819V16.2392C44.3716 17.1122 44.6627 17.5004 45.4055 17.5004Z" fill="#EDEDED"/>
<path d="M69.7575 11.0652V23.6805H63.8125V0.390625H72.085L77.6749 11.9395C78.1279 12.9104 79.0965 12.4896 79.0965 11.7774V0.390625H85.0101V23.6817H77.5783L71.0511 10.7424C70.6634 9.99874 69.7587 10.4183 69.7587 11.0665L69.7575 11.0652Z" fill="#EDEDED"/>
<path d="M102.521 19.1521H95.5736C94.9914 19.1521 94.6037 19.4436 94.4431 19.9937L93.3765 23.6817H86.6875L93.7329 0.390625H104.137L111.181 23.6817H104.719L103.653 19.9937C103.491 19.4436 103.103 19.1521 102.522 19.1521H102.521ZM97.5448 14.0736H100.324C101.099 14.0736 101.455 13.6202 101.229 12.8125L99.516 6.95766C99.2901 6.24543 98.5787 6.24543 98.3528 6.95766L96.6401 12.8125C96.4143 13.6214 96.7694 14.0736 97.5448 14.0736Z" fill="#EDEDED"/>
<path d="M119.257 18.4738V23.6817H112.859V0.390625H124.072C128.724 0.390625 132.279 3.81985 132.279 8.47757C132.279 12.2296 129.92 15.2054 126.431 16.209L133.087 23.6817H125.461L120.388 18.0204C120 17.5996 119.289 17.7616 119.257 18.4738ZM126.172 8.47757C126.172 6.60092 124.751 5.01569 122.585 5.01569C120.581 5.01569 118.966 6.60092 118.966 8.47757C118.966 10.3542 120.582 12.0035 122.585 12.0035C124.749 12.0035 126.172 10.4183 126.172 8.47757Z" fill="#EDEDED"/>
<path d="M135.164 0.390625H146.247C153.291 0.390625 158.461 5.30711 158.461 12.0362C158.461 18.7653 153.291 23.6817 146.247 23.6817H135.164V0.390625ZM152.225 12.0035C152.225 8.5743 149.737 6.08339 146.376 6.08339C143.016 6.08339 140.592 8.5743 140.592 12.0035C140.592 15.4328 143.048 17.729 146.376 17.729C149.705 17.729 152.225 15.3034 152.225 12.0035Z" fill="#EDEDED"/>
<path d="M160 12.0337C160 5.36995 165.364 0 172.02 0C178.677 0 184.041 5.36995 184.041 12.0337C184.041 18.6975 178.677 24.0674 172.02 24.0674C165.364 24.0674 160 18.6975 160 12.0337ZM167.82 17.5004H176.221C176.964 17.5004 177.255 17.1122 177.255 16.2392V7.82819C177.255 6.95518 176.964 6.56703 176.221 6.56703H167.82C167.077 6.56703 166.786 6.95518 166.786 7.82819V16.2392C166.786 17.1122 167.077 17.5004 167.82 17.5004Z" fill="#EDEDED"/>
<path d="M185.203 16.5625H192.311V23.6797H185.203V16.5625Z" fill="#EDEDED"/>
<path d="M194.844 16.5645L201.209 0.390625H209.416L215.782 16.5645V23.7131H209.642V20.5753C209.642 19.5076 209.06 18.926 207.995 18.926H202.631C201.564 18.926 200.983 19.5076 200.983 20.5753V23.7131H194.844V16.5645ZM203.407 14.041H207.188C207.899 14.041 208.254 13.3614 207.996 12.6818L206.121 7.86207C205.798 7.05312 204.829 7.05312 204.505 7.86207L202.599 12.6818C202.341 13.3614 202.696 14.041 203.407 14.041Z" fill="#EDEDED"/>
<path d="M218.062 0.390625H224.524V23.6817H218.062V0.390625Z" fill="#EDEDED"/>
</g>
<defs>
<clipPath id="clip0_6278_18774">
<rect width="224.531" height="24.0674" fill="white"/>
</clipPath>
</defs>
</svg>
